<svg width="240" height="240" viewBox="0 0 240 240" fill="none" xmlns="http://www.w3.org/2000/svg">
<path d="M94.2206 185.539C82.6983 185.539 59.6537 182.33 59.6537 169.493C59.6537 156.657 76.0275 149.78 84.2144 147.946C94.2206 146.877 114.142 142.262 113.778 132.359" stroke="black"/>
<path d="M132.679 180.258C132.692 180.258 132.705 180.258 132.719 180.258L132.742 181.205L132.679 180.258ZM132.679 180.258L132.679 180.254L132.514 180.265C125.298 180.713 119.801 179.241 115.606 176.807C111.408 174.371 108.484 170.954 106.45 167.467C104.415 163.978 103.276 160.427 102.646 157.744C102.331 156.404 102.144 155.284 102.036 154.501C101.982 154.109 101.948 153.802 101.927 153.594C101.917 153.49 101.91 153.411 101.906 153.358L101.901 153.299L101.9 153.286L132.679 180.258ZM107.496 196.987C105.928 200.735 105.242 204.416 104.95 207.2C104.295 204.478 103.133 200.919 101.086 197.41C98.9858 193.808 95.9492 190.25 91.5692 187.708C88.4971 185.926 84.7792 184.653 80.2853 184.208C84.6821 183.178 88.2009 181.429 91.0127 179.259C95.0215 176.165 97.5652 172.239 99.175 168.393C100.744 164.645 101.43 160.964 101.722 158.179C102.376 160.902 103.539 164.461 105.587 167.971C107.687 171.572 110.724 175.131 115.104 177.672C118.176 179.454 121.894 180.727 126.387 181.172C121.99 182.202 118.471 183.952 115.659 186.122C111.65 189.216 109.106 193.142 107.496 196.987Z" fill="#F8CEEE" stroke="black"/>
<path d="M121.13 121.055C121.057 120.673 120.96 120.158 120.843 119.526C120.566 118.038 120.178 115.894 119.73 113.274C118.835 108.034 117.7 100.89 116.746 93.2763C115.791 85.6604 115.017 77.5824 114.841 70.47C114.664 63.3345 115.091 57.2481 116.492 53.5672C122.152 38.6914 138.599 31.1594 153.218 36.7219C167.837 42.2845 175.118 58.845 169.458 73.7207C168.057 77.4016 164.33 82.2326 159.454 87.4455C154.595 92.6415 148.647 98.162 142.871 103.217C137.096 108.271 131.5 112.853 127.347 116.172C125.271 117.832 123.556 119.175 122.36 120.104C121.852 120.498 121.438 120.818 121.13 121.055Z" fill="#2BEDE1" stroke="black"/>
<path d="M120.814 120.828C120.842 121.009 120.873 121.217 120.906 121.447C121.033 122.32 121.19 123.509 121.316 124.773C121.442 126.04 121.535 127.374 121.534 128.54C121.533 129.729 121.433 130.667 121.218 131.191C120.296 133.439 117.764 134.513 115.57 133.614C113.377 132.714 112.328 130.171 113.25 127.923C113.465 127.399 114.052 126.661 114.887 125.814C115.705 124.983 116.708 124.098 117.686 123.285C118.664 122.472 119.611 121.737 120.314 121.204C120.499 121.064 120.667 120.937 120.814 120.828Z" fill="#8E3AE2" stroke="black"/>
<path d="M135.321 50.6436L135.321 50.6434C137.653 44.7743 144.223 41.7394 150.24 43.8456C156.256 45.9518 159.499 52.4218 157.662 58.4641L157.661 58.4639L157.651 58.4603L157.64 58.4567L157.63 58.453L157.619 58.4493L157.609 58.4456L157.598 58.4418L157.587 58.438L157.576 58.4341L157.565 58.4303L157.554 58.4263L157.542 58.4224L157.531 58.4184L157.52 58.4144L157.508 58.4103L157.496 58.4062L157.484 58.4021L157.473 58.3979L157.46 58.3937L157.448 58.3895L157.436 58.3852L157.424 58.3809L157.411 58.3766L157.399 58.3722L157.386 58.3678L157.374 58.3633L157.361 58.3588L157.348 58.3543L157.335 58.3498L157.322 58.3452L157.309 58.3406L157.295 58.3359L157.282 58.3312L157.269 58.3265L157.255 58.3218L157.241 58.317L157.228 58.3122L157.214 58.3073L157.2 58.3024L157.186 58.2975L157.172 58.2925L157.157 58.2876L157.143 58.2825L157.128 58.2775L157.114 58.2724L157.099 58.2673L157.085 58.2621L157.07 58.2569L157.055 58.2517L157.04 58.2464L157.025 58.2412L157.01 58.2358L156.994 58.2305L156.979 58.2251L156.963 58.2197L156.948 58.2142L156.932 58.2087L156.916 58.2032L156.9 58.1977L156.885 58.1921L156.869 58.1865L156.852 58.1808L156.836 58.1751L156.82 58.1694L156.803 58.1637L156.787 58.1579L156.77 58.1521L156.754 58.1463L156.737 58.1404L156.72 58.1345L156.703 58.1286L156.686 58.1226L156.669 58.1166L156.652 58.1106L156.634 58.1045L156.617 58.0984L156.599 58.0923L156.582 58.0861L156.564 58.08L156.546 58.0737L156.529 58.0675L156.511 58.0612L156.493 58.0549L156.475 58.0486L156.456 58.0422L156.438 58.0358L156.42 58.0294L156.401 58.0229L156.383 58.0164L156.364 58.0099L156.345 58.0033L156.326 57.9967L156.308 57.9901L156.289 57.9835L156.27 57.9768L156.25 57.9701L156.231 57.9633L156.212 57.9566L156.192 57.9498L156.173 57.9429L156.153 57.9361L156.134 57.9292L156.114 57.9223L156.094 57.9153L156.074 57.9084L156.054 57.9014L156.034 57.8943L156.014 57.8873L155.994 57.8802L155.973 57.873L155.953 57.8659L155.932 57.8587L155.912 57.8515L155.891 57.8443L155.87 57.837L155.849 57.8297L155.828 57.8224L155.807 57.815L155.786 57.8076L155.765 57.8002L155.744 57.7928L155.723 57.7853L155.701 57.7778L155.68 57.7703L155.658 57.7627L155.636 57.7551L155.615 57.7475L155.593 57.7399L155.571 57.7322L155.549 57.7245L155.527 57.7168L155.505 57.7091L155.482 57.7013L155.46 57.6935L155.438 57.6856L155.415 57.6778L155.393 57.6699L155.37 57.662L155.347 57.654L155.325 57.646L155.302 57.638L155.279 57.63L155.256 57.622L155.233 57.6139L155.21 57.6058L155.186 57.5976L155.163 57.5895L155.14 57.5813L155.116 57.5731L155.093 57.5648L155.069 57.5566L155.045 57.5483L155.022 57.5399L154.998 57.5316L154.974 57.5232L154.95 57.5148L154.926 57.5064L154.902 57.4979L154.877 57.4894L154.853 57.4809L154.829 57.4724L154.804 57.4638L154.78 57.4553L154.755 57.4467L154.73 57.438L154.706 57.4294L154.681 57.4207L154.656 57.4119L154.631 57.4032L154.606 57.3944L154.581 57.3857L154.556 57.3768L154.53 57.368L154.505 57.3591L154.48 57.3502L154.454 57.3413L154.429 57.3324L154.403 57.3234L154.377 57.3144L154.352 57.3054L154.326 57.2964L154.3 57.2873L154.274 57.2782L154.248 57.2691L154.222 57.2599L154.196 57.2508L154.169 57.2416L154.143 57.2324L154.117 57.2231L154.09 57.2139L154.064 57.2046L154.037 57.1953L154.01 57.1859L153.984 57.1766L153.957 57.1672L153.93 57.1578L153.903 57.1484L153.876 57.1389L153.849 57.1294L153.822 57.1199L153.795 57.1104L153.767 57.1008L153.74 57.0913L153.713 57.0817L153.685 57.0721L153.657 57.0624L153.63 57.0527L153.602 57.0431L153.574 57.0333L153.547 57.0236L153.519 57.0138L153.491 57.0041L153.463 56.9943L153.435 56.9844L153.407 56.9746L153.378 56.9647L153.35 56.9548L153.322 56.9449L153.293 56.935L153.265 56.925L153.236 56.915L153.208 56.905L153.179 56.895L153.15 56.8849L153.122 56.8749L153.093 56.8648L153.064 56.8546L153.035 56.8445L153.006 56.8343L152.977 56.8242L152.948 56.814L152.919 56.8037L152.889 56.7935L152.86 56.7832L152.831 56.7729L152.801 56.7626L152.772 56.7523L152.742 56.7419L152.712 56.7315L152.683 56.7211L152.653 56.7107L152.623 56.7003L152.593 56.6898L152.563 56.6793L152.533 56.6688L152.503 56.6583L152.473 56.6478L152.443 56.6372L152.413 56.6266L152.382 56.616L152.352 56.6054L152.322 56.5948L152.291 56.5841L152.261 56.5734L152.23 56.5627L152.199 56.552L152.169 56.5412L152.138 56.5305L152.107 56.5197L152.076 56.5089L152.045 56.498L152.014 56.4872L151.983 56.4763L151.952 56.4654L151.921 56.4545L151.89 56.4436L151.859 56.4327L151.827 56.4217L151.796 56.4107L151.764 56.3997L151.733 56.3887L151.701 56.3776L151.67 56.3666L151.638 56.3555L151.606 56.3444L151.575 56.3333L151.543 56.3222L151.511 56.311L151.479 56.2998L151.447 56.2886L151.415 56.2774L151.383 56.2662L151.351 56.2549L151.319 56.2437L151.286 56.2324L151.254 56.2211L151.222 56.2098L151.189 56.1984L151.157 56.1871L151.125 56.1757L151.092 56.1643L151.059 56.1529L151.027 56.1415L150.994 56.13L150.961 56.1186L150.928 56.1071L150.896 56.0956L150.863 56.0841L150.83 56.0725L150.797 56.061L150.764 56.0494L150.731 56.0378L150.697 56.0262L150.664 56.0146L150.631 56.003L150.598 55.9913L150.564 55.9796L150.531 55.9679L150.498 55.9562L150.464 55.9445L150.431 55.9328L150.397 55.921L150.363 55.9093L150.33 55.8975L150.296 55.8857L150.262 55.8738L150.228 55.862L150.195 55.8501L150.161 55.8383L150.127 55.8264L150.093 55.8145L150.059 55.8026L150.025 55.7906L149.99 55.7787L149.956 55.7667L149.922 55.7547L149.888 55.7427L149.853 55.7307L149.819 55.7187L149.785 55.7066L149.75 55.6946L149.716 55.6825L149.681 55.6704L149.647 55.6583L149.612 55.6462L149.577 55.6341L149.543 55.6219L149.508 55.6097L149.473 55.5976L149.438 55.5854L149.403 55.5732L149.368 55.5609L149.333 55.5487L149.298 55.5364L149.263 55.5242L149.228 55.5119L149.193 55.4996L149.158 55.4873L149.123 55.4749L149.087 55.4626L149.052 55.4502L149.017 55.4379L148.981 55.4255L148.946 55.4131L148.911 55.4007L148.875 55.3883L148.84 55.3758L148.804 55.3634L148.768 55.3509L148.733 55.3384L148.697 55.3259L148.661 55.3134L148.625 55.3009L148.59 55.2884L148.554 55.2758L148.518 55.2632L148.482 55.2507L148.446 55.2381L148.41 55.2255L148.374 55.2129L148.338 55.2002L148.302 55.1876L148.266 55.1749L148.23 55.1623L148.193 55.1496L148.157 55.1369L148.121 55.1242L148.084 55.1115L148.048 55.0988L148.012 55.086L147.975 55.0733L147.939 55.0605L147.902 55.0477L147.866 55.0349L147.829 55.0221L147.793 55.0093L147.756 54.9965L147.719 54.9837L147.683 54.9708L147.646 54.9579L147.609 54.9451L147.572 54.9322L147.535 54.9193L147.499 54.9064L147.462 54.8935L147.425 54.8805L147.388 54.8676L147.351 54.8546L147.314 54.8417L147.277 54.8287L147.24 54.8157L147.202 54.8027L147.165 54.7897L147.128 54.7767L147.091 54.7637L147.054 54.7506L147.016 54.7376L146.979 54.7245L146.942 54.7114L146.904 54.6984L146.867 54.6853L146.829 54.6722L146.792 54.659L146.754 54.6459L146.717 54.6328L146.679 54.6196L146.642 54.6065L146.604 54.5933L146.567 54.5801L146.529 54.567L146.491 54.5538L146.454 54.5406L146.416 54.5274L146.378 54.5142L146.341 54.501L146.303 54.4879L146.266 54.4747L146.228 54.4616L146.19 54.4485L146.153 54.4354L146.116 54.4223L146.078 54.4092L146.041 54.3961L146.003 54.383L145.966 54.37L145.929 54.3569L145.892 54.3439L145.854 54.3308L145.817 54.3178L145.78 54.3048L145.743 54.2918L145.706 54.2788L145.669 54.2658L145.632 54.2529L145.595 54.2399L145.558 54.227L145.521 54.2141L145.484 54.2011L145.447 54.1882L145.41 54.1753L145.373 54.1624L145.337 54.1496L145.3 54.1367L145.263 54.1239L145.227 54.111L145.19 54.0982L145.153 54.0854L145.117 54.0726L145.08 54.0598L145.044 54.047L145.007 54.0343L144.971 54.0215L144.934 54.0088L144.898 53.996L144.862 53.9833L144.825 53.9706L144.789 53.9579L144.753 53.9452L144.717 53.9326L144.681 53.9199L144.645 53.9073L144.608 53.8947L144.572 53.882L144.536 53.8694L144.5 53.8569L144.465 53.8443L144.429 53.8317L144.393 53.8192L144.357 53.8066L144.321 53.7941L144.285 53.7816L144.25 53.7691L144.214 53.7566L144.179 53.7442L144.143 53.7317L144.107 53.7193L144.072 53.7068L144.036 53.6944L144.001 53.682L143.966 53.6697L143.93 53.6573L143.895 53.6449L143.86 53.6326L143.825 53.6203L143.789 53.6079L143.754 53.5956L143.719 53.5834L143.684 53.5711L143.649 53.5588L143.614 53.5466L143.579 53.5344L143.544 53.5222L143.51 53.51L143.475 53.4978L143.44 53.4856L143.405 53.4735L143.371 53.4613L143.336 53.4492L143.301 53.4371L143.267 53.425L143.232 53.4129L143.198 53.4009L143.163 53.3888L143.129 53.3768L143.095 53.3648L143.061 53.3528L143.026 53.3408L142.992 53.3288L142.958 53.3169L142.924 53.305L142.89 53.293L142.856 53.2811L142.822 53.2692L142.788 53.2574L142.754 53.2455L142.72 53.2337L142.687 53.2219L142.653 53.2101L142.619 53.1983L142.585 53.1865L142.552 53.1747L142.518 53.163L142.485 53.1513L142.451 53.1396L142.418 53.1279L142.385 53.1162L142.351 53.1046L142.318 53.0929L142.285 53.0813L142.252 53.0697L142.219 53.0581L142.186 53.0465L142.153 53.035L142.12 53.0235L142.087 53.0119L142.054 53.0004L142.021 52.989L141.988 52.9775L141.956 52.9661L141.923 52.9546L141.891 52.9432L141.858 52.9318L141.825 52.9204L141.793 52.9091L141.761 52.8977L141.728 52.8864L141.696 52.8751L141.664 52.8638L141.632 52.8526L141.599 52.8413L141.567 52.8301L141.535 52.8189L141.503 52.8077L141.471 52.7965L141.44 52.7854L141.408 52.7742L141.376 52.7631L141.344 52.752L141.313 52.7409L141.281 52.7299L141.25 52.7188L141.218 52.7078L141.187 52.6968L141.155 52.6858L141.124 52.6749L141.093 52.6639L141.061 52.653L141.03 52.6421L140.999 52.6312L140.968 52.6203L140.937 52.6095L140.906 52.5987L140.875 52.5879L140.845 52.5771L140.814 52.5663L140.783 52.5556L140.752 52.5448L140.722 52.5341L140.691 52.5234L140.661 52.5128L140.63 52.5021L140.6 52.4915L140.57 52.4809L140.54 52.4703L140.509 52.4597L140.479 52.4492L140.449 52.4387L140.419 52.4282L140.389 52.4177L140.359 52.4072L140.33 52.3968L140.3 52.3864L140.27 52.376L140.241 52.3656L140.211 52.3553L140.181 52.3449L140.152 52.3346L140.123 52.3243L140.093 52.314L140.064 52.3038L140.035 52.2936L140.006 52.2834L139.976 52.2732L139.947 52.263L139.919 52.2529L139.89 52.2428L139.861 52.2327L139.832 52.2226L139.803 52.2125L139.775 52.2025L139.746 52.1925L139.718 52.1825L139.689 52.1726L139.661 52.1626L139.632 52.1527L139.604 52.1428L139.576 52.1329L139.548 52.1231L139.52 52.1133L139.492 52.1035L139.464 52.0937L139.436 52.0839L139.408 52.0742L139.38 52.0645L139.353 52.0548L139.325 52.0451L139.297 52.0355L139.27 52.0259L139.243 52.0163L139.215 52.0067L139.188 51.9971L139.161 51.9876L139.134 51.9781L139.106 51.9686L139.079 51.9592L139.053 51.9497L139.026 51.9403L138.999 51.931L138.972 51.9216L138.945 51.9123L138.919 51.9029L138.892 51.8937L138.866 51.8844L138.839 51.8752L138.813 51.8659L138.787 51.8568L138.761 51.8476L138.735 51.8384L138.709 51.8293L138.683 51.8202L138.657 51.8112L138.631 51.8021L138.605 51.7931L138.579 51.7841L138.554 51.7752L138.528 51.7662L138.503 51.7573L138.477 51.7484L138.452 51.7395L138.427 51.7307L138.402 51.7219L138.377 51.7131L138.351 51.7043L138.326 51.6956L138.302 51.6869L138.277 51.6782L138.252 51.6695L138.227 51.6609L138.203 51.6523L138.178 51.6437L138.154 51.6351L138.129 51.6266L138.105 51.6181L138.081 51.6096L138.057 51.6011L138.033 51.5927L138.009 51.5843L137.985 51.5759L137.961 51.5676L137.937 51.5593L137.913 51.551L137.89 51.5427L137.866 51.5345L137.843 51.5262L137.819 51.518L137.796 51.5099L137.773 51.5017L137.75 51.4936L137.727 51.4856L137.704 51.4775L137.681 51.4695L137.658 51.4615L137.635 51.4535L137.612 51.4456L137.59 51.4376L137.567 51.4298L137.545 51.4219L137.522 51.4141L137.5 51.4062L137.478 51.3985L137.456 51.3907L137.434 51.383L137.412 51.3753L137.39 51.3676L137.368 51.36L137.346 51.3524L137.324 51.3448L137.303 51.3372L137.281 51.3297L137.26 51.3222L137.239 51.3147L137.217 51.3073L137.196 51.2999L137.175 51.2925L137.154 51.2852L137.133 51.2778L137.112 51.2705L137.092 51.2633L137.071 51.256L137.05 51.2488L137.03 51.2416L137.009 51.2345L136.989 51.2274L136.969 51.2203L136.949 51.2132L136.928 51.2062L136.908 51.1992L136.888 51.1922L136.869 51.1852L136.849 51.1783L136.829 51.1714L136.81 51.1646L136.79 51.1577L136.771 51.151L136.751 51.1442L136.732 51.1374L136.713 51.1307L136.694 51.1241L136.675 51.1174L136.656 51.1108L136.637 51.1042L136.618 51.0977L136.6 51.0911L136.581 51.0846L136.563 51.0782L136.544 51.0717L136.526 51.0653L136.508 51.059L136.49 51.0526L136.472 51.0463L136.454 51.04L136.436 51.0338L136.418 51.0276L136.401 51.0214L136.383 51.0152L136.366 51.0091L136.348 51.003L136.331 50.997L136.314 50.9909L136.296 50.9849L136.279 50.979L136.262 50.973L136.246 50.9671L136.229 50.9613L136.212 50.9554L136.196 50.9496L136.179 50.9438L136.163 50.9381L136.146 50.9324L136.13 50.9267L136.114 50.921L136.098 50.9154L136.082 50.9099L136.066 50.9043L136.05 50.8988L136.035 50.8933L136.019 50.8878L136.004 50.8824L135.988 50.877L135.973 50.8717L135.958 50.8664L135.943 50.8611L135.928 50.8558L135.913 50.8506L135.898 50.8454L135.883 50.8403L135.869 50.8351L135.854 50.83L135.84 50.825L135.825 50.82L135.811 50.815L135.797 50.81L135.783 50.8051L135.769 50.8002L135.755 50.7954L135.741 50.7905L135.727 50.7858L135.714 50.781L135.7 50.7763L135.687 50.7716L135.674 50.7669L135.661 50.7623L135.647 50.7577L135.634 50.7532L135.622 50.7487L135.609 50.7442L135.596 50.7398L135.583 50.7353L135.571 50.731L135.559 50.7266L135.546 50.7223L135.534 50.7181L135.522 50.7138L135.51 50.7096L135.498 50.7054L135.486 50.7013L135.475 50.6972L135.463 50.6932L135.451 50.6891L135.44 50.6851L135.429 50.6812L135.418 50.6773L135.406 50.6734L135.395 50.6695L135.385 50.6657L135.374 50.6619L135.363 50.6582L135.353 50.6545L135.342 50.6508L135.332 50.6472L135.321 50.6436Z" fill="white" stroke="black"/>
</svg>
