<svg width="101" height="84" viewBox="0 0 101 84" fill="none" xmlns="http://www.w3.org/2000/svg">
<rect x="23.1273" y="74.8105" width="7.23287" height="7.23287" transform="rotate(-135 23.1273 74.8105)" fill="black"/>
<circle cx="18.6336" cy="18.6338" r="18.1336" fill="white" stroke="black"/>
<path d="M29.3134 10.8701C29.3134 13.4832 27.0619 15.6496 24.2234 15.6496C21.3849 15.6496 19.1333 13.4832 19.1333 10.8701C19.1333 8.25698 21.3849 6.09058 24.2234 6.09058C27.0619 6.09058 29.3134 8.25698 29.3134 10.8701Z" fill="black" stroke="black"/>
<circle cx="55.9002" cy="18.6336" r="18.1336" fill="#8E3AE2" stroke="black"/>
<circle cx="61.18" cy="10.8701" r="4.77952" fill="white" stroke="black"/>
<path d="M74.4742 19.2544C84.0347 29.6791 86.6297 54.3359 20.5258 69.5651" stroke="black"/>
<path d="M96.4032 79.2967C108.485 67.9253 87.25 51.0937 75.1221 44.0994C75.1221 44.0994 72.3602 47.6087 65.8384 52.1739C59.3167 56.7392 55.9005 58.3137 55.9005 58.3137C64.3672 70.0461 84.321 90.6681 96.4032 79.2967Z" fill="#F8CEEE" stroke="black"/>
</svg>
