<svg width="240" height="240" viewBox="0 0 240 240" fill="none" xmlns="http://www.w3.org/2000/svg">
<circle cx="134.172" cy="120" r="61.5" fill="#2BEDE1" stroke="black"/>
<path d="M129.08 80.9385H129.083C128.807 81.3341 128.429 81.8719 127.959 82.5338C126.882 84.0488 125.321 86.2138 123.382 88.8121C119.505 94.0094 114.121 100.937 108.093 107.863C102.063 114.791 95.4004 121.704 88.9649 126.881C85.7473 129.469 82.5972 131.615 79.6208 133.112C76.6407 134.61 73.8639 135.443 71.3844 135.443C56.4451 135.443 44.3284 123.245 44.3284 108.191C44.3284 93.1364 56.4451 80.9385 71.3844 80.9385H71.4739H71.5641H71.6548H71.7463H71.8383H71.931H72.0243H72.1182H72.2128H72.3079H72.4037H72.5001H72.5971H72.6947H72.7929H72.8917H72.9911H73.0911H73.1916H73.2928H73.3945H73.4968H73.5997H73.7032H73.8072H73.9118H74.017H74.1227H74.229H74.3358H74.4432H74.5511H74.6596H74.7686H74.8781H74.9882H75.0988H75.21H75.3216H75.4338H75.5465H75.6597H75.7735H75.8877H76.0024H76.1177H76.2334H76.3497H76.4664H76.5836H76.7013H76.8195H76.9381H77.0573H77.1769H77.297H77.4175H77.5385H77.66H77.7819H77.9043H78.0272H78.1504H78.2742H78.3983H78.5229H78.648H78.7734H78.8993H79.0256H79.1524H79.2795H79.4071H79.5351H79.6635H79.7923H79.9215H80.0511H80.1811H80.3115H80.4423H80.5735H80.705H80.8369H80.9693H81.1019H81.235H81.3684H81.5022H81.6363H81.7708H81.9057H82.0409H82.1765H82.3124H82.4486H82.5852H82.7221H82.8593H82.9969H83.1348H83.273H83.4116H83.5504H83.6896H83.8291H83.9689H84.109H84.2493H84.39H84.531H84.6723H84.8138H84.9557H85.0978H85.2402H85.3829H85.5258H85.669H85.8125H85.9562H86.1002H86.2445H86.389H86.5337H86.6787H86.824H86.9695H87.1152H87.2611H87.4073H87.5537H87.7003H87.8472H87.9942H88.1415H88.289H88.4367H88.5846H88.7327H88.881H89.0295H89.1782H89.327H89.4761H89.6253H89.7747H89.9243H90.0741H90.224H90.3741H90.5243H90.6747H90.8253H90.976H91.1269H91.2779H91.4291H91.5804H91.7318H91.8834H92.0351H92.1869H92.3389H92.4909H92.6431H92.7954H92.9478H93.1004H93.253H93.4057H93.5585H93.7115H93.8645H94.0176H94.1708H94.324H94.4774H94.6308H94.7843H94.9378H95.0915H95.2452H95.3989H95.5527H95.7066H95.8605H96.0145H96.1685H96.3225H96.4766H96.6307H96.7848H96.939H97.0932H97.2474H97.4017H97.5559H97.7102H97.8645H98.0187H98.173H98.3273H98.4816H98.6358H98.7901H98.9443H99.0985H99.2527H99.4069H99.5611H99.7152H99.8693H100.023H100.177H100.331H100.485H100.639H100.793H100.947H101.1H101.254H101.408H101.561H101.715H101.868H102.021H102.174H102.328H102.481H102.634H102.786H102.939H103.092H103.244H103.397H103.549H103.701H103.853H104.005H104.157H104.309H104.461H104.612H104.763H104.915H105.066H105.217H105.367H105.518H105.668H105.819H105.969H106.119H106.269H106.418H106.568H106.717H106.866H107.015H107.164H107.312H107.461H107.609H107.757H107.904H108.052H108.199H108.346H108.493H108.64H108.786H108.933H109.079H109.224H109.37H109.515H109.66H109.805H109.95H110.094H110.238H110.382H110.525H110.669H110.812H110.954H111.097H111.239H111.381H111.523H111.664H111.805H111.946H112.086H112.226H112.366H112.506H112.645H112.784H112.923H113.061H113.199H113.337H113.474H113.611H113.748H113.884H114.02H114.156H114.291H114.426H114.56H114.695H114.828H114.962H115.095H115.228H115.36H115.492H115.624H115.755H115.886H116.017H116.147H116.276H116.406H116.535H116.663H116.791H116.919H117.046H117.173H117.299H117.425H117.551H117.676H117.801H117.925H118.049H118.172H118.295H118.418H118.54H118.661H118.783H118.903H119.023H119.143H119.262H119.381H119.499H119.617H119.735H119.851H119.968H120.084H120.199H120.314H120.428H120.542H120.656H120.768H120.881H120.992H121.104H121.214H121.325H121.434H121.543H121.652H121.76H121.868H121.975H122.081H122.187H122.292H122.397H122.501H122.605H122.708H122.81H122.912H123.013H123.114H123.214H123.314H123.413H123.511H123.609H123.706H123.803H123.898H123.994H124.088H124.183H124.276H124.369H124.461H124.553H124.644H124.734H124.824H124.913H125.001H125.089H125.176H125.262H125.348H125.433H125.517H125.601H125.684H125.766H125.848H125.929H126.01H126.089H126.168H126.246H126.324H126.401H126.477H126.552H126.627H126.701H126.774H126.847H126.919H126.99H127.06H127.13H127.199H127.267H127.334H127.401H127.467H127.532H127.597H127.66H127.723H127.785H127.847H127.907H127.967H128.026H128.084H128.142H128.198H128.254H128.309H128.364H128.417H128.47H128.522H128.573H128.623H128.672H128.721H128.769H128.816H128.862H128.907H128.952H128.995H129.038H129.08Z" fill="#D6EEE9" stroke="black"/>
<path d="M182.264 80.9385H182.276C182.024 81.3354 181.676 81.8793 181.24 82.5511C180.257 84.0653 178.824 86.2295 177.028 88.8268C173.437 94.0223 168.397 100.947 162.6 107.87C156.8 114.795 150.254 121.704 143.653 126.877C137.036 132.063 130.44 135.443 124.528 135.443C109.588 135.443 97.4717 123.245 97.4717 108.191C97.4717 93.1364 109.588 80.9385 124.528 80.9385H124.617H124.707H124.798H124.89H124.982H125.074H125.168H125.262H125.356H125.451H125.547H125.643H125.74H125.838H125.936H126.035H126.134H126.234H126.335H126.436H126.538H126.64H126.743H126.847H126.951H127.055H127.16H127.266H127.372H127.479H127.587H127.694H127.803H127.912H128.022H128.132H128.242H128.353H128.465H128.577H128.69H128.803H128.917H129.031H129.146H129.261H129.377H129.493H129.61H129.727H129.845H129.963H130.082H130.201H130.32H130.44H130.561H130.682H130.803H130.925H131.048H131.171H131.294H131.418H131.542H131.666H131.791H131.917H132.043H132.169H132.296H132.423H132.55H132.678H132.807H132.936H133.065H133.194H133.324H133.455H133.586H133.717H133.848H133.98H134.113H134.245H134.378H134.512H134.646H134.78H134.914H135.049H135.184H135.32H135.456H135.592H135.729H135.865H136.003H136.14H136.278H136.416H136.555H136.694H136.833H136.972H137.112H137.252H137.393H137.533H137.674H137.816H137.957H138.099H138.241H138.384H138.526H138.669H138.812H138.956H139.1H139.244H139.388H139.532H139.677H139.822H139.967H140.113H140.259H140.404H140.551H140.697H140.844H140.991H141.138H141.285H141.432H141.58H141.728H141.876H142.024H142.173H142.322H142.47H142.619H142.769H142.918H143.068H143.217H143.367H143.517H143.668H143.818H143.969H144.119H144.27H144.421H144.572H144.724H144.875H145.027H145.178H145.33H145.482H145.634H145.786H145.939H146.091H146.244H146.396H146.549H146.702H146.855H147.008H147.161H147.314H147.467H147.621H147.774H147.928H148.081H148.235H148.389H148.542H148.696H148.85H149.004H149.158H149.312H149.466H149.62H149.774H149.928H150.082H150.237H150.391H150.545H150.699H150.854H151.008H151.162H151.316H151.471H151.625H151.779H151.933H152.088H152.242H152.396H152.55H152.704H152.859H153.013H153.167H153.321H153.475H153.629H153.782H153.936H154.09H154.244H154.397H154.551H154.705H154.858H155.011H155.165H155.318H155.471H155.624H155.777H155.93H156.083H156.235H156.388H156.54H156.692H156.845H156.997H157.149H157.301H157.452H157.604H157.755H157.907H158.058H158.209H158.36H158.511H158.661H158.812H158.962H159.112H159.262H159.412H159.562H159.711H159.86H160.009H160.158H160.307H160.456H160.604H160.752H160.9H161.048H161.195H161.343H161.49H161.637H161.783H161.93H162.076H162.222H162.368H162.513H162.659H162.804H162.949H163.093H163.237H163.381H163.525H163.669H163.812H163.955H164.098H164.24H164.382H164.524H164.666H164.807H164.948H165.089H165.23H165.37H165.51H165.649H165.788H165.927H166.066H166.204H166.342H166.48H166.617H166.754H166.891H167.027H167.163H167.299H167.434H167.569H167.704H167.838H167.972H168.105H168.239H168.371H168.504H168.636H168.767H168.899H169.029H169.16H169.29H169.42H169.549H169.678H169.806H169.935H170.062H170.19H170.316H170.443H170.569H170.694H170.82H170.944H171.069H171.192H171.316H171.439H171.561H171.683H171.805H171.926H172.047H172.167H172.287H172.406H172.525H172.643H172.761H172.878H172.995H173.111H173.227H173.342H173.457H173.572H173.686H173.799H173.912H174.024H174.136H174.247H174.358H174.468H174.578H174.687H174.795H174.904H175.011H175.118H175.224H175.33H175.436H175.54H175.645H175.748H175.851H175.954H176.055H176.157H176.258H176.358H176.457H176.556H176.654H176.752H176.849H176.946H177.042H177.137H177.232H177.326H177.419H177.512H177.604H177.696H177.787H177.877H177.967H178.056H178.144H178.232H178.319H178.405H178.491H178.576H178.661H178.744H178.827H178.91H178.992H179.073H179.153H179.233H179.311H179.39H179.467H179.544H179.62H179.696H179.77H179.844H179.918H179.99H180.062H180.133H180.204H180.273H180.342H180.41H180.478H180.545H180.61H180.676H180.74H180.804H180.867H180.929H180.99H181.051H181.11H181.169H181.228H181.285H181.342H181.398H181.453H181.507H181.561H181.613H181.665H181.716H181.766H181.816H181.864H181.912H181.959H182.005H182.051H182.095H182.139H182.181H182.223H182.264Z" fill="white" stroke="black"/>
<path d="M148.934 150.115C148.934 158.594 142.324 165.467 134.172 165.467C126.019 165.467 119.41 158.594 119.41 150.115C119.41 150.115 126.019 150.115 134.172 150.115C142.324 150.115 148.934 150.115 148.934 150.115Z" fill="black"/>
<path d="M70.3783 87.2728C70.534 86.9306 71.0201 86.9306 71.1757 87.2728L76.633 99.2667C76.6968 99.4068 76.8294 99.5032 76.9824 99.5206L90.0757 101.004C90.4493 101.047 90.5995 101.509 90.3221 101.763L80.6016 110.659C80.4881 110.763 80.4374 110.919 80.4682 111.07L83.103 123.981C83.1782 124.349 82.7849 124.635 82.4578 124.45L70.993 117.954C70.859 117.878 70.695 117.878 70.5611 117.954L59.0962 124.45C58.7691 124.635 58.3759 124.349 58.451 123.981L61.0859 111.07C61.1166 110.919 61.066 110.763 60.9524 110.659L51.2319 101.763C50.9546 101.509 51.1048 101.047 51.4783 101.004L64.5716 99.5206C64.7246 99.5032 64.8572 99.4068 64.921 99.2667L70.3783 87.2728Z" fill="black"/>
<path d="M125.28 87.2728C125.436 86.9306 125.922 86.9306 126.078 87.2728L131.535 99.2667C131.599 99.4068 131.732 99.5032 131.885 99.5206L144.978 101.004C145.351 101.047 145.502 101.509 145.224 101.763L135.504 110.659C135.39 110.763 135.34 110.919 135.37 111.07L138.005 123.981C138.08 124.349 137.687 124.635 137.36 124.45L125.895 117.954C125.761 117.878 125.597 117.878 125.463 117.954L113.998 124.45C113.671 124.635 113.278 124.349 113.353 123.981L115.988 111.07C116.019 110.919 115.968 110.763 115.855 110.659L106.134 101.763C105.857 101.509 106.007 101.047 106.38 101.004L119.474 99.5206C119.627 99.5032 119.759 99.4068 119.823 99.2667L125.28 87.2728Z" fill="black"/>
<path d="M125.753 101.472C125.909 101.13 126.395 101.13 126.551 101.472L127.903 104.444C127.967 104.584 128.099 104.681 128.252 104.698L131.497 105.066C131.871 105.108 132.021 105.57 131.743 105.824L129.335 108.029C129.221 108.133 129.17 108.289 129.201 108.439L129.854 111.639C129.929 112.007 129.536 112.293 129.209 112.108L126.368 110.498C126.234 110.422 126.07 110.422 125.936 110.498L123.095 112.108C122.768 112.293 122.375 112.007 122.45 111.639L123.103 108.439C123.134 108.289 123.083 108.133 122.969 108.029L120.561 105.824C120.283 105.57 120.433 105.108 120.807 105.066L124.052 104.698C124.205 104.681 124.337 104.584 124.401 104.444L125.753 101.472Z" fill="#D6EEE9"/>
<path d="M70.8517 101.472C71.0074 101.13 71.4935 101.13 71.6492 101.472L73.0015 104.444C73.0653 104.584 73.1979 104.681 73.3509 104.698L76.5955 105.066C76.969 105.108 77.1192 105.57 76.8419 105.824L74.4331 108.029C74.3196 108.133 74.2689 108.289 74.2997 108.439L74.9526 111.639C75.0278 112.007 74.6345 112.293 74.3074 112.108L71.4664 110.498C71.3324 110.422 71.1685 110.422 71.0345 110.498L68.1935 112.108C67.8664 112.293 67.4732 112.007 67.5483 111.639L68.2013 108.439C68.232 108.289 68.1814 108.133 68.0678 108.029L65.659 105.824C65.3817 105.57 65.5319 105.108 65.9055 105.066L69.15 104.698C69.303 104.681 69.4356 104.584 69.4994 104.444L70.8517 101.472Z" fill="#D6EEE9"/>
</svg>
