<svg width="30" height="50" viewBox="0 0 30 50" fill="none" xmlns="http://www.w3.org/2000/svg">
<path d="M25.6239 0H29.9717V14.7174H25.7164C23.5139 14.7174 21.7226 16.4785 21.6739 18.6694V18.6739H27.8912V31.3261H21.6739V50H6.95646V31.3261H0.717407V18.6739H6.95651C7.01769 8.39071 15.3331 0.0699218 25.6085 9.76025e-05L25.6152 0H25.6239ZM25.6239 10.3696V4.3478C17.7069 4.43003 11.3183 10.8568 11.2979 18.7806V23.0217H5.06525V26.9782H11.3043V45.6522H17.3261V26.9782H23.5435V23.0217H17.3261V18.7826V18.7604C17.3261 14.1566 21.0336 10.4187 25.6258 10.3696H25.6304H25.6239Z" fill="#F2E2DA"/>
</svg>
