<svg width="51" height="50" viewBox="0 0 51 50" fill="none" xmlns="http://www.w3.org/2000/svg">
<path d="M11.2702 0.0473633H40.2589C46.0324 0.0535528 50.7113 4.73222 50.7174 10.5053V39.4946C50.7113 45.2682 46.0325 49.9469 40.2596 49.9531H11.2702C5.49665 49.9469 0.817835 45.2682 0.811646 39.4952V10.5059C0.817835 4.73232 5.49655 0.0535528 11.2695 0.0473633H11.2701H11.2702ZM40.2589 45.6136C43.6368 45.6098 46.3741 42.8725 46.3777 39.495V10.506C46.3741 7.12809 43.6368 4.39078 40.2593 4.38707H11.2701C7.89223 4.39078 5.15496 7.12809 5.15131 10.5056V39.4947C5.15496 42.8726 7.89223 45.6098 11.2698 45.6136H11.2701H40.2589ZM25.7645 12.4804C32.6791 12.4804 38.2844 18.0858 38.2844 25.0003C38.2844 31.9148 32.679 37.5201 25.7645 37.5201C18.85 37.5201 13.2447 31.9148 13.2447 25.0003C13.2533 18.0892 18.8535 12.4891 25.7637 12.4804H25.7645ZM25.7645 33.1805C30.2824 33.1805 33.9448 29.5181 33.9448 25.0003C33.9448 20.4825 30.2824 16.82 25.7645 16.82C21.2467 16.82 17.5843 20.4825 17.5843 25.0003C17.5892 29.5162 21.2487 33.1756 25.7641 33.1805H25.7645ZM42.3202 11.5474C42.3202 13.261 40.9311 14.6502 39.2174 14.6502C37.5038 14.6502 36.1146 13.261 36.1146 11.5474C36.1146 9.83372 37.5037 8.44455 39.2174 8.44455C40.931 8.44455 42.3202 9.83372 42.3202 11.5474Z" fill="#F2E2DA"/>
</svg>
