<svg width="51" height="48" viewBox="0 0 51 48" fill="none" xmlns="http://www.w3.org/2000/svg">
<path d="M0.905823 0.0454102H50.8116V47.955H0.905823V0.0454102ZM46.6528 4.20428H5.0646V43.7961H46.6528V4.20428ZM38.8758 37.9322H34.717V24.9984C34.717 22.3053 32.5339 20.1222 29.8409 20.1222C27.1478 20.1222 24.9646 22.3053 24.9646 24.9984V37.9322H20.8057V24.9984C20.8057 20.0085 24.8509 15.9634 29.8408 15.9634C34.8307 15.9634 38.8758 20.0085 38.8758 24.9984L38.8758 37.9322ZM17.0004 37.9322H12.8416V16.036H17.0004V37.9322ZM16.9173 12.0644C16.9173 13.1669 16.0235 14.0606 14.921 14.0606C13.8185 14.0606 12.9248 13.1668 12.9248 12.0643C12.9248 10.9619 13.8185 10.0681 14.921 10.0681C16.0235 10.0681 16.9173 10.9619 16.9173 12.0644ZM24.9646 25.9964H20.8057V16.036H24.9646V25.9964Z" fill="#F2E2DA"/>
</svg>
