<svg width="108" height="110" viewBox="0 0 108 110" fill="none" xmlns="http://www.w3.org/2000/svg">
<mask id="path-1-inside-1_228_1486" fill="white">
<path d="M107.804 55C107.855 55 107.907 54.996 107.958 54.996H107.653C54.0059 54.787 53.998 0.340763 53.998 0.340763C53.998 0.340763 53.994 54.787 0.346948 54.996H0.0415039C0.0930724 54.996 0.144641 55 0.196209 55C0.144641 55 0.0930724 55.004 0.0415039 55.004H0.346948C53.994 55.213 53.998 109.659 53.998 109.659C53.998 109.659 54.002 55.213 107.649 55.004H107.955C107.907 55 107.855 55 107.804 55Z"/>
</mask>
<path d="M107.804 55C107.855 55 107.907 54.996 107.958 54.996H107.653C54.0059 54.787 53.998 0.340763 53.998 0.340763C53.998 0.340763 53.994 54.787 0.346948 54.996H0.0415039C0.0930724 54.996 0.144641 55 0.196209 55C0.144641 55 0.0930724 55.004 0.0415039 55.004H0.346948C53.994 55.213 53.998 109.659 53.998 109.659C53.998 109.659 54.002 55.213 107.649 55.004H107.955C107.907 55 107.855 55 107.804 55Z" fill="#1F3138"/>
<path d="M107.958 54.996L108.407 55.2164L108.772 54.4747L107.945 54.4961L107.958 54.996ZM107.653 54.996L107.666 54.4962L107.346 54.4876L107.205 54.7745L107.653 54.996ZM0.346948 54.996H0.846948V54.4826L0.33379 54.4961L0.346948 54.996ZM0.0415039 54.996L0.0545022 54.4961L-0.458496 54.4828V54.996H0.0415039ZM0.0415039 55.004H-0.458496V55.5172L0.0544839 55.5038L0.0415039 55.004ZM0.346948 55.004L0.33379 55.5038L0.846948 55.5174V55.004H0.346948ZM107.649 55.004L107.201 54.7826L106.834 55.5254L107.662 55.5038L107.649 55.004ZM107.955 55.004L107.941 55.5038L108.262 55.5124L108.403 55.2245L107.955 55.004ZM107.817 55.4998L107.971 55.4958L107.945 54.4961L107.791 54.5002L107.817 55.4998ZM107.817 54.5002L107.666 54.4962L107.64 55.4958L107.79 55.4998L107.817 54.5002ZM107.791 54.5002L107.636 54.5042L107.662 55.5038L107.817 55.4998L107.791 54.5002ZM107.79 55.4998L107.941 55.5038L107.968 54.5042L107.817 54.5002L107.79 55.4998ZM107.945 54.4961L107.636 54.5042L107.662 55.5038L107.971 55.4958L107.945 54.4961ZM107.51 54.7755L107.506 54.7836L108.403 55.2245L108.407 55.2164L107.51 54.7755ZM107.205 54.7745L107.201 54.7826L108.097 55.2255L108.101 55.2174L107.205 54.7745ZM107.64 55.4958L107.941 55.5038L107.968 54.5042L107.666 54.4962L107.64 55.4958ZM0.333608 54.4962L0.182869 54.5002L0.209549 55.4998L0.360288 55.4958L0.333608 54.4962ZM0.33379 54.4961L0.0283462 54.5042L0.0546616 55.5038L0.360106 55.4958L0.33379 54.4961ZM-0.153052 54.996V55.004H0.846948V54.996H-0.153052ZM0.0285056 55.4958L0.183211 55.4998L0.209208 54.5002L0.0545022 54.4961L0.0285056 55.4958ZM-0.458496 54.996V55.004H0.541504V54.996H-0.458496ZM0.0283462 55.4958L0.33379 55.5038L0.360106 54.5042L0.0546616 54.4961L0.0283462 55.4958ZM0.183229 54.5002L0.0285239 54.5042L0.0544839 55.5038L0.209189 55.4998L0.183229 54.5002ZM0.182888 55.4998L0.333627 55.5038L0.360269 54.5042L0.209531 54.5002L0.182888 55.4998ZM107.653 54.996L107.649 55.996H107.653V54.996ZM53.998 0.340763L54.998 0.340617L52.998 0.34069L53.998 0.340763ZM0.346948 54.996V55.996L0.350843 55.996L0.346948 54.996ZM0.346948 55.004L0.350843 54.004H0.346948V55.004ZM53.998 109.659L52.998 109.659H54.998L53.998 109.659ZM107.649 55.004V54.004L107.645 54.004L107.649 55.004ZM107.955 55.004V56.004L108.039 54.0076L107.955 55.004ZM107.804 56C107.852 56 107.898 55.9981 107.92 55.9972C107.934 55.9967 107.942 55.9964 107.949 55.9962C107.952 55.9961 107.955 55.996 107.956 55.996C107.958 55.996 107.958 55.996 107.958 55.996V53.996C107.91 53.996 107.865 53.9979 107.842 53.9987C107.828 53.9993 107.82 53.9996 107.813 53.9998C107.81 53.9999 107.808 53.9999 107.806 54C107.804 54 107.804 54 107.804 54V56ZM107.958 53.996H107.653V55.996H107.958V53.996ZM107.657 53.996C94.4232 53.9444 84.563 50.5514 77.1996 45.5412C69.8293 40.5262 64.9015 33.8504 61.6052 27.1486C58.3071 20.4434 56.6526 13.7323 55.8243 8.68917C55.4104 6.16996 55.2038 4.07331 55.1006 2.61033C55.0491 1.879 55.0234 1.30651 55.0106 0.919304C55.0043 0.725714 55.0011 0.578484 54.9995 0.480922C54.9988 0.432142 54.9984 0.395784 54.9982 0.372261C54.9981 0.3605 54.998 0.351947 54.998 0.346656C54.998 0.34401 54.998 0.34218 54.998 0.341171C54.998 0.340667 54.998 0.340529 54.998 0.340276C54.998 0.340343 54.998 0.340617 53.998 0.340763C52.998 0.340909 52.998 0.341598 52.998 0.342495C52.998 0.343071 52.998 0.344176 52.998 0.345327C52.998 0.347628 52.998 0.350757 52.998 0.354705C52.9981 0.362603 52.9981 0.373782 52.9982 0.388191C52.9985 0.417009 52.9989 0.458748 52.9998 0.512992C53.0015 0.621477 53.005 0.780001 53.0117 0.985239C53.0253 1.39568 53.0522 1.99314 53.1056 2.75099C53.2124 4.26635 53.4255 6.42495 53.8507 9.01334C54.7003 14.1854 56.4007 21.099 59.8105 28.0314C63.2221 34.9673 68.3551 41.9422 76.0745 47.1947C83.8009 52.4519 94.0593 55.943 107.649 55.996L107.657 53.996ZM53.998 0.340763C52.998 0.34069 52.998 0.340416 52.998 0.340348C52.998 0.340602 52.998 0.340739 52.998 0.341244C52.998 0.342253 52.998 0.344083 52.998 0.346729C52.998 0.35202 52.9979 0.360572 52.9978 0.372334C52.9976 0.395857 52.9973 0.432215 52.9965 0.480995C52.9949 0.578557 52.9918 0.725786 52.9854 0.919376C52.9727 1.30659 52.947 1.87907 52.8955 2.6104C52.7925 4.07339 52.586 6.17003 52.1724 8.68924C51.3443 13.7324 49.6904 20.4434 46.3928 27.1487C43.0969 33.8504 38.1697 40.5262 30.7997 45.5412C23.4368 50.5514 13.5767 53.9444 0.343053 53.996L0.350843 55.996C13.9407 55.943 24.1988 52.4519 31.9249 47.1947C39.6439 41.9422 44.7765 34.9673 48.1875 28.0313C51.5968 21.0989 53.2967 14.1853 54.1459 9.01327C54.5709 6.42488 54.7839 4.26628 54.8906 2.75092C54.944 1.99307 54.9708 1.39561 54.9843 0.985166C54.9911 0.779928 54.9945 0.621404 54.9962 0.512919C54.9971 0.458675 54.9975 0.416936 54.9978 0.388119C54.9979 0.373709 54.9979 0.36253 54.998 0.354633C54.998 0.350684 54.998 0.347555 54.998 0.345254C54.998 0.344103 54.998 0.342998 54.998 0.342422C54.998 0.341526 54.998 0.340836 53.998 0.340763ZM0.346948 53.996H0.0415039V55.996H0.346948V53.996ZM0.0415039 55.996C0.0414774 55.996 0.0421774 55.996 0.0437786 55.996C0.0453915 55.996 0.0476963 55.9961 0.0509367 55.9962C0.0581488 55.9964 0.0661737 55.9967 0.0798782 55.9972C0.102401 55.9981 0.147675 56 0.196209 56V54C0.196236 54 0.195536 54 0.193935 54C0.192322 53.9999 0.190017 53.9999 0.186776 53.9998C0.179564 53.9996 0.17154 53.9993 0.157835 53.9987C0.135312 53.9979 0.0900381 53.996 0.0415039 53.996V55.996ZM0.196209 54C0.147707 54 0.10246 54.0019 0.079933 54.0028C0.0662296 54.0033 0.0581979 54.0036 0.0509778 54.0038C0.0477329 54.0039 0.0454223 54.004 0.0438025 54.004C0.0421946 54.004 0.0414865 54.004 0.0415039 54.004V56.004C0.0900061 56.004 0.135253 56.0021 0.15778 56.0013C0.171484 56.0007 0.179515 56.0004 0.186735 56.0002C0.18998 56.0001 0.192291 56.0001 0.193911 56C0.195519 56 0.196227 56 0.196209 56V54ZM0.0415039 56.004H0.346948V54.004H0.0415039V56.004ZM0.343053 56.004C13.5767 56.0556 23.4368 59.4486 30.7997 64.4588C38.1697 69.4738 43.0969 76.1496 46.3928 82.8513C49.6904 89.5566 51.3443 96.2676 52.1724 101.311C52.586 103.83 52.7925 105.927 52.8955 107.39C52.947 108.121 52.9727 108.693 52.9854 109.081C52.9918 109.274 52.9949 109.421 52.9965 109.519C52.9973 109.568 52.9976 109.604 52.9978 109.628C52.9979 109.639 52.998 109.648 52.998 109.653C52.998 109.656 52.998 109.658 52.998 109.659C52.998 109.659 52.998 109.659 52.998 109.66C52.998 109.66 52.998 109.659 53.998 109.659C54.998 109.659 54.998 109.658 54.998 109.658C54.998 109.657 54.998 109.656 54.998 109.655C54.998 109.652 54.998 109.649 54.998 109.645C54.9979 109.637 54.9979 109.626 54.9978 109.612C54.9975 109.583 54.9971 109.541 54.9962 109.487C54.9945 109.379 54.9911 109.22 54.9843 109.015C54.9708 108.604 54.944 108.007 54.8906 107.249C54.7839 105.734 54.5709 103.575 54.1459 100.987C53.2967 95.8147 51.5968 88.9011 48.1875 81.9687C44.7765 75.0327 39.6439 68.0578 31.9249 62.8053C24.1988 57.5481 13.9407 54.057 0.350843 54.004L0.343053 56.004ZM53.998 109.659C54.998 109.659 54.998 109.66 54.998 109.66C54.998 109.659 54.998 109.659 54.998 109.659C54.998 109.658 54.998 109.656 54.998 109.653C54.998 109.648 54.9981 109.639 54.9982 109.628C54.9984 109.604 54.9987 109.568 54.9995 109.519C55.0011 109.421 55.0042 109.274 55.0106 109.081C55.0233 108.693 55.049 108.121 55.1005 107.39C55.2035 105.927 55.41 103.83 55.8236 101.311C56.6517 96.2676 58.3056 89.5566 61.6032 82.8513C64.8991 76.1496 69.8263 69.4738 77.1963 64.4588C84.5592 59.4486 94.4193 56.0556 107.653 56.004L107.645 54.004C94.0553 54.057 83.7972 57.5481 76.0711 62.8053C68.3521 68.0578 63.2195 75.0327 59.8085 81.9687C56.3992 88.9011 54.6993 95.8147 53.8501 100.987C53.4251 103.575 53.2122 105.734 53.1054 107.249C53.052 108.007 53.0252 108.604 53.0117 109.015C53.0049 109.22 53.0015 109.379 52.9998 109.487C52.9989 109.541 52.9985 109.583 52.9982 109.612C52.9981 109.626 52.9981 109.637 52.998 109.645C52.998 109.649 52.998 109.652 52.998 109.655C52.998 109.656 52.998 109.657 52.998 109.658C52.998 109.658 52.998 109.659 53.998 109.659ZM107.649 56.004H107.955V54.004H107.649V56.004ZM108.039 54.0076C107.941 53.9993 107.846 54 107.804 54V56C107.831 56 107.847 56 107.861 56.0003C107.874 56.0006 107.875 56.0009 107.87 56.0005L108.039 54.0076Z" fill="black" mask="url(#path-1-inside-1_228_1486)"/>
</svg>
