<svg width="50" height="44" viewBox="0 0 50 44" fill="none" xmlns="http://www.w3.org/2000/svg">
<path d="M16.3849 34.4646C10.0186 33.253 5.8778 30.6746 4.07423 26.8027L7.97622 24.9863C9.15994 27.5324 12.2591 29.2907 17.1877 30.2377L16.3849 34.4646ZM18.4058 43.943C17.7473 43.943 17.0866 43.9193 16.4237 43.872C9.81656 43.6136 3.97493 40.5424 0.0287144 35.8298L0 35.7947L3.44359 33.2121C6.68287 36.9911 11.4075 39.4169 16.7019 39.5777L16.7292 39.5783C17.2474 39.6199 17.8511 39.6436 18.4602 39.6436C24.7702 39.6436 30.4859 37.0992 34.6372 32.9803L34.6357 32.9817L34.6551 32.9624C39.6608 28.1057 42.7674 21.3158 42.7674 13.8003C42.7674 12.8296 42.7156 11.8709 42.6146 10.927L42.6248 11.0443L42.5775 10.5857L43.9333 6.52458H39.687L39.0909 6.03172C37.8443 4.99372 36.2263 4.36372 34.4611 4.36372C34.3371 4.36372 34.2138 4.36689 34.0912 4.37302L34.1085 4.37233H34.0052C33.9565 4.37083 33.8992 4.36997 33.8417 4.36997C31.3095 4.36997 29.1701 6.05191 28.4798 8.35956L28.4697 8.39916C27.939 9.75336 27.606 11.3201 27.5491 12.957L27.5485 12.9812V15.0666L25.463 15.1334C20.0695 15.3013 14.194 13.0523 7.57803 8.26999C7.62967 8.7865 7.71363 9.37622 7.84062 10.0391C8.26675 12.347 9.02635 14.4066 10.0773 16.2808L10.0251 16.1794L6.33191 18.3919C4.97406 16.0062 3.9772 13.2249 3.50333 10.2689L3.4846 10.1273C2.87988 6.42982 3.25433 3.95263 4.59945 2.76029L5.96175 1.55506L7.37793 2.69785C13.5118 7.64804 18.7848 10.2996 23.4357 10.7645C23.6498 9.28116 24.013 7.94603 24.5173 6.68251L24.4752 6.80217C25.8264 2.85458 29.5047 0.0671406 33.8341 0.0671406C33.8761 0.0671406 33.918 0.0673977 33.9599 0.067912H33.9535C34.1057 0.060712 34.2839 0.0566406 34.4631 0.0566406C36.9893 0.0566406 39.3261 0.867587 41.2274 2.24335L41.1936 2.22012H49.9058L46.9508 11.0808C47.0232 11.8772 47.0645 12.8033 47.0645 13.7391C47.0645 22.4768 43.466 30.374 37.6703 36.0297L37.6639 36.0358C32.7458 40.9227 25.9681 43.9432 18.4849 43.9432C18.4571 43.9432 18.4293 43.9432 18.4016 43.943H18.4059L18.4058 43.943ZM9.05451 27.6271C5.18929 24.7442 2.50505 20.4635 1.74991 15.5469L1.73684 15.4434L5.99608 14.8214C6.58181 18.6674 8.63455 21.9481 11.5547 24.1333L11.5918 24.1599L9.05451 27.6271Z" fill="#F2E2DA"/>
</svg>
