<svg width="150" height="38" viewBox="0 0 150 38" fill="none" xmlns="http://www.w3.org/2000/svg">
<path d="M19 10L21.0206 16.2188H27.5595L22.2694 20.0623L24.2901 26.2812L19 22.4377L13.7099 26.2812L15.7306 20.0623L10.4405 16.2188H16.9794L19 10Z" fill="#1F3138"/>
<path d="M47 10L49.0206 16.2188H55.5595L50.2694 20.0623L52.2901 26.2812L47 22.4377L41.7099 26.2812L43.7306 20.0623L38.4405 16.2188H44.9794L47 10Z" fill="#1F3138"/>
<path d="M75 10L77.0206 16.2188H83.5595L78.2694 20.0623L80.2901 26.2812L75 22.4377L69.7099 26.2812L71.7306 20.0623L66.4405 16.2188H72.9794L75 10Z" fill="#1F3138"/>
<path d="M103 10L105.021 16.2188H111.56L106.269 20.0623L108.29 26.2812L103 22.4377L97.7099 26.2812L99.7306 20.0623L94.4405 16.2188H100.979L103 10Z" fill="#1F3138"/>
<path d="M131 10L133.021 16.2188H139.56L134.269 20.0623L136.29 26.2812L131 22.4377L125.71 26.2812L127.731 20.0623L122.44 16.2188H128.979L131 10Z" fill="#1F3138"/>
</svg>
